<svg width="16" height="17" viewBox="0 0 16 17" fill="none" xmlns="http://www.w3.org/2000/svg">
<g clip-path="url(#clip0_235_459)">
<path d="M-12 8.5C-12 11.1264 -11.4827 13.7272 -10.4776 16.1537C-9.4725 18.5802 -7.99931 20.785 -6.14213 22.6421C-4.28496 24.4993 -2.08018 25.9725 0.346332 26.9776C2.77284 27.9827 5.37356 28.5 8 28.5C10.6264 28.5 13.2272 27.9827 15.6537 26.9776C18.0802 25.9725 20.285 24.4993 22.1421 22.6421C23.9993 20.785 25.4725 18.5802 26.4776 16.1537C27.4827 13.7272 28 11.1264 28 8.5C28 5.87356 27.4827 3.27284 26.4776 0.846333C25.4725 -1.58018 23.9993 -3.78496 22.1421 -5.64214C20.285 -7.49931 18.0802 -8.9725 15.6537 -9.97759C13.2272 -10.9827 10.6264 -11.5 8 -11.5C5.37356 -11.5 2.77284 -10.9827 0.346332 -9.97759C-2.08018 -8.9725 -4.28496 -7.49931 -6.14213 -5.64214C-7.99931 -3.78496 -9.4725 -1.58018 -10.4776 0.846333C-11.4827 3.27284 -12 5.87356 -12 8.5Z" fill="#FFF1DC"/>
<path d="M13.564 6.89859C13.4626 6.47974 13.0785 5.78331 12.6806 5.21025C12.5055 4.95855 12.1175 5.02023 12.0259 5.31372C11.8827 5.76739 11.6548 6.28872 11.2589 6.75731C11.1863 6.84287 11.045 6.7991 11.038 6.68668C10.9624 5.52564 10.4122 2.52404 6.53214 2.10221C6.26452 2.07336 6.05559 2.33302 6.14314 2.58772C6.43564 3.44332 6.67043 5.08788 5.33031 6.09571C5.27559 6.1365 5.19998 6.12257 5.1572 6.06984C4.7105 5.50076 4.15336 5.15156 3.39823 5.01028C3.13458 4.96153 2.91272 5.2013 2.97341 5.46296C3.09081 5.96737 3.13956 6.82795 2.65903 7.99993C1.85217 9.96485 0.921943 14.7105 8.32494 14.7105C15.7279 14.7105 13.7063 7.48657 13.564 6.89859ZM4.92141 12.2014C4.86495 12.2543 4.79861 12.2956 4.72617 12.3229C4.65373 12.3501 4.57662 12.3628 4.49927 12.3602C4.42192 12.3576 4.34583 12.3398 4.27538 12.3078C4.20492 12.2757 4.14148 12.2301 4.08869 12.1735C3.10275 11.1189 3.53155 9.15202 3.58328 8.93115C3.6579 8.61478 3.97527 8.41779 4.29165 8.4934C4.36685 8.51108 4.43784 8.5434 4.50054 8.58852C4.56325 8.63364 4.61645 8.69068 4.65711 8.75637C4.69776 8.82207 4.72507 8.89513 4.73747 8.97138C4.74988 9.04763 4.74713 9.12558 4.7294 9.20077C4.63588 9.60271 4.4757 10.8622 4.94827 11.3686C5.17113 11.6064 5.15919 11.9795 4.92141 12.2014Z" fill="#FC7032"/>
<path d="M13.4387 6.53645C13.2686 6.13749 12.9781 5.63905 12.6806 5.21025C12.5055 4.95855 12.1175 5.02023 12.0259 5.31372C11.8827 5.76739 11.6548 6.28872 11.2589 6.75731C11.1863 6.84287 11.045 6.7991 11.038 6.68668C10.9624 5.52564 10.4122 2.52404 6.53214 2.10221C6.26452 2.07336 6.05559 2.33302 6.14314 2.58772C6.43564 3.44332 6.67043 5.08788 5.33031 6.09571C5.27559 6.1365 5.19998 6.12257 5.1572 6.06984C4.71049 5.50076 4.15335 5.15156 3.39823 5.01028C3.13458 4.96153 2.91272 5.2013 2.97341 5.46296C3.09081 5.96737 3.13956 6.82795 2.65902 7.99993C1.95464 9.71513 1.15773 13.5475 5.88745 14.4956C10.0033 14.0887 13.2447 10.711 13.4387 6.53645ZM4.92141 12.2014C4.86495 12.2543 4.7986 12.2956 4.72617 12.3229C4.65373 12.3501 4.57662 12.3628 4.49927 12.3602C4.42191 12.3576 4.34583 12.3398 4.27537 12.3078C4.20492 12.2757 4.14148 12.2301 4.08869 12.1735C3.10275 11.1189 3.53154 9.15202 3.58328 8.93115C3.6579 8.61478 3.97527 8.41779 4.29164 8.4934C4.36685 8.51108 4.43783 8.5434 4.50054 8.58852C4.56325 8.63364 4.61645 8.69068 4.6571 8.75637C4.69776 8.82206 4.72507 8.89513 4.73747 8.97138C4.74988 9.04763 4.74713 9.12558 4.7294 9.20077C4.63588 9.60271 4.4757 10.8622 4.94827 11.3686C5.17113 11.6064 5.15919 11.9795 4.92141 12.2014Z" fill="#FF7C33"/>
<path d="M10.8269 5.47191C10.4419 4.12781 9.39324 2.41361 6.53094 2.10221C6.26331 2.07336 6.05438 2.33302 6.14193 2.58772C6.43443 3.44332 6.66923 5.08788 5.32911 6.09571C5.27439 6.1365 5.19877 6.12257 5.15599 6.06984C4.70929 5.50076 4.15215 5.15156 3.39702 5.01028C3.13338 4.96153 2.91151 5.2013 2.9722 5.46296C3.0896 5.96737 3.13835 6.82795 2.65782 7.99993C2.30562 8.85753 1.92956 10.2454 2.23499 11.5378C2.4081 11.5487 2.58121 11.5557 2.75731 11.5557C3.06672 11.5557 3.37116 11.5378 3.67161 11.5049C3.24878 10.4454 3.54029 9.11222 3.58207 8.93215C3.65669 8.61577 3.97406 8.41878 4.29044 8.4944C4.36564 8.51207 4.43663 8.54439 4.49933 8.58952C4.56204 8.63464 4.61524 8.69167 4.6559 8.75737C4.69655 8.82306 4.72386 8.89612 4.73626 8.97237C4.74867 9.04862 4.74592 9.12657 4.72819 9.20176C4.63964 9.58281 4.4924 10.7339 4.87941 11.2831C7.74769 10.5359 10.0151 8.31134 10.8269 5.47191Z" fill="#FF8D4D"/>
<path d="M6.531 2.10221C6.26337 2.07336 6.05444 2.33302 6.14199 2.58772C6.43449 3.44332 6.66929 5.08788 5.32916 6.09571C5.27445 6.1365 5.19883 6.12257 5.15605 6.06984C4.70935 5.50076 4.15221 5.15156 3.39708 5.01028C3.13343 4.96153 2.91157 5.2013 2.97226 5.46296C3.08966 5.96737 3.13841 6.82795 2.65788 7.99993C2.60798 8.12288 2.56088 8.24694 2.5166 8.37202C5.42766 7.70843 7.76367 5.53459 8.65211 2.71606C8.089 2.41659 7.39257 2.19573 6.531 2.10221Z" fill="#FFA56A"/>
</g>
<defs>
<clipPath id="clip0_235_459">
<rect y="0.5" width="16" height="16" rx="8" fill="white"/>
</clipPath>
</defs>
</svg>
