<svg width="48" height="49" viewBox="0 0 48 49" fill="none" xmlns="http://www.w3.org/2000/svg">
<path d="M2.76965 24.1874C2.76965 29.792 4.99605 35.167 8.95907 39.13C12.9221 43.093 18.2971 45.3194 23.9017 45.3194C29.5062 45.3194 34.8812 43.093 38.8442 39.13C42.8073 35.167 45.0337 29.792 45.0337 24.1874C45.0337 18.5829 42.8073 13.2079 38.8442 9.24484C34.8812 5.28182 29.5062 3.05542 23.9017 3.05542C18.2971 3.05542 12.9221 5.28182 8.95907 9.24484C4.99605 13.2079 2.76965 18.5829 2.76965 24.1874Z" fill="#E6F1FF"/>
<path d="M35.8272 20.0092C35.424 14.0404 30.3384 9.30518 24.1464 9.30518C17.9784 9.30518 12.9144 13.9996 12.4704 19.9324C10.812 20.6404 9.64563 22.2868 9.64563 24.202V28.9636C9.64563 31.522 11.7264 33.6028 14.2848 33.6028H16.0728C17.0016 33.6028 17.7528 32.8516 17.7528 31.9228V21.2428C17.7528 20.314 17.0016 19.5628 16.0728 19.5628H15.888C16.4928 15.6652 19.9656 12.6652 24.144 12.6652C28.3248 12.6652 31.7952 15.6628 32.4024 19.5628H32.064C31.1352 19.5628 30.384 20.314 30.384 21.2428V31.9228C30.384 32.53 30.708 33.0604 31.1904 33.3556C30.0936 34.4212 28.3488 35.638 25.884 35.986C25.5769 35.7569 25.204 35.6332 24.8208 35.6332H23.5968C23.122 35.6332 22.6666 35.8218 22.3308 36.1576C21.9951 36.4933 21.8064 36.9487 21.8064 37.4236C21.8064 37.8984 21.9951 38.3538 22.3308 38.6896C22.6666 39.0253 23.122 39.214 23.5968 39.214H24.8208C25.3512 39.214 25.8264 38.9812 26.1552 38.614C30.84 38.002 33.5112 34.9348 34.4904 33.5524C36.7464 33.238 38.4888 31.3036 38.4888 28.9612V24.202C38.4936 22.3516 37.3992 20.7532 35.8272 20.0092Z" fill="#025FCA"/>
<path d="M38.3472 23.0548C38.0016 21.706 37.0655 20.5948 35.8295 20.0092C35.4263 14.0404 30.3407 9.30518 24.1487 9.30518C17.9807 9.30518 12.9167 13.9996 12.4727 19.9324C10.8143 20.6404 9.64795 22.2868 9.64795 24.202V28.9636C9.64795 31.522 11.7287 33.6028 14.2871 33.6028H16.0751C17.0039 33.6028 17.7551 32.8516 17.7551 31.9228V21.2428C17.7551 20.314 17.0039 19.5628 16.0751 19.5628H15.8879C16.4927 15.6652 19.9656 12.6652 24.144 12.6652C28.3248 12.6652 31.7952 15.6628 32.4024 19.5628H32.0639C31.1351 19.5628 30.384 20.314 30.384 21.2428V31.9228C30.384 32.1436 30.4272 32.3524 30.504 32.5444C33.9744 30.2428 36.7248 26.9428 38.3472 23.0548Z" fill="#0373F3"/>
<path d="M24.1464 9.30518C17.9784 9.30518 12.9144 13.9996 12.4704 19.9324C10.812 20.6404 9.64563 22.2868 9.64563 24.202V28.2796C10.7544 28.4596 11.8944 28.5556 13.0536 28.5556C14.6688 28.5556 16.2408 28.3732 17.7528 28.03V21.2428C17.7528 20.314 17.0016 19.5628 16.0728 19.5628H15.888C16.4928 15.6652 19.9656 12.6652 24.144 12.6652C27.4896 12.6652 30.3792 14.5852 31.7112 17.35C32.3502 16.1511 32.8718 14.8932 33.2688 13.594C31.1208 10.9828 27.8304 9.30518 24.1464 9.30518Z" fill="#3592FD"/>
<path d="M24.1464 12.6652C24.3 12.6652 24.4512 12.67 24.6048 12.6796C25.344 11.7004 26.0016 10.6564 26.5656 9.55478C25.7856 9.39398 24.9768 9.30518 24.1464 9.30518C17.9784 9.30518 12.9144 13.9996 12.4704 19.9324C11.9736 20.1436 11.5224 20.4412 11.1312 20.8036C12.7724 20.5389 14.3764 20.0805 15.9096 19.438C16.5696 15.6004 20.0112 12.6652 24.1464 12.6652Z" fill="#68AEFD"/>
</svg>
